<svg xmlns="http://www.w3.org/2000/svg" viewBox="0 0 207.81 231.74"><defs><style>.cls-1{fill:#f49727;}.cls-2{fill:#193761;}</style></defs><g id="Capa_6" data-name="Capa 6"><circle class="cls-1" cx="135.42" cy="12.79" r="12.79"/></g><g id="Capa_5" data-name="Capa 5"><circle class="cls-1" cx="158" cy="36.01" r="7.42"/></g><g id="Capa_4" data-name="Capa 4"><circle class="cls-1" cx="171.31" cy="57.38" r="6.98"/></g><g id="A"><path class="cls-2" d="M195.43,276.13s7.53,5.48,12.74-4.43a70.8,70.8,0,0,0,6.66-17.09l5.47-15.26,7.91-20.87,4.6-10.76s14.72-37,28.32-36.79,23.19,26.12,23.19,26.12,12.84,32.52,14.08,37.18,8,25.2,8.9,29.25,2.87,9.39,2.87,9.91,16.18,63.78,16.18,63.78,3.52,13.44,6.65,19.57,6,7.3,6,7.3,1,1,4,1.57,5.09-.26,7.7-1.31,3.28-4.9,3.28-4.9,1.32-2.5-3.67-23.43-5.53-23.63-5.53-23.63-3.73-19.12-19.91-69.6S290.35,169.17,273,163.17a33.94,33.94,0,0,0-30,3.4s-4.7,2.34-13.17,11.08-18,27.39-18,27.39S202.3,226.17,200,233.09,185.43,270.65,195.43,276.13Z" transform="translate(-146.37 -134.03)"/></g><g id="L"><path class="cls-2" d="M244,344.48c-.78,3-1.09,3.71-3.13,5.74s-6.94,1-10,1l-72,.34c-6.21,0-12.38-5.74-12.38-12l.13-165.13c0-3.31-.91-7.16.78-9.26s6.34-2.64,9.89-2.64,6.25.13,8.5,2.38,1.57,7.4,1.57,10.83l.51,151.35a2.78,2.78,0,0,0,2.7,2.77l66.44.31C243.2,330.26,245.6,338.55,244,344.48Z" transform="translate(-146.37 -134.03)"/></g></svg>